# xmcd
#
# Track frame offsets: 
#        150
#        12931
#        26667
#        41148
#        54765
#        66486
#        78958
#        91865
#        104403
#        122550
#        139342
#        152795
#        165552
#        190043
#
# Disc length: 2735 seconds
#
# Revision: 1
# Processed by: cddbd v1.5.2PL0 Copyright (c) Steve Scherf et al.
# Submitted via: ExactAudioCopy v0.99pb5
#
DISCID=b10aad0e
DTITLE=Kenny Blue Ray - Way Down In Memphis
DYEAR=1997
DGENRE=Blues
TTITLE0=Gator Ride
TTITLE1=What About My Money
TTITLE2=Way Down In Memphis
TTITLE3=Grooveman
TTITLE4=Blue
TTITLE5=Pretty Baby
TTITLE6=Boogie's Blues
TTITLE7=I'm Tore Up
TTITLE8=Wild Cat
TTITLE9=Angels In Houston
TTITLE10=Let's Party
TTITLE11=Blues Juice
TTITLE12=Pull The Strings
TTITLE13=The Wind Cries Mary
EXTD=
EXTT0=
EXTT1=
EXTT2=
EXTT3=
EXTT4=
EXTT5=
EXTT6=
EXTT7=
EXTT8=
EXTT9=
EXTT10=
EXTT11=
EXTT12=
EXTT13=
PLAYORDER=
